<?xml version="1.0" standalone="no"?>
<!DOCTYPE svg PUBLIC "-//W3C//DTD SVG 20010904//EN"
 "http://www.w3.org/TR/2001/REC-SVG-20010904/DTD/svg10.dtd">
<svg version="1.0" xmlns="http://www.w3.org/2000/svg"
 width="217.000000pt" height="217.000000pt" viewBox="0 0 217.000000 217.000000"
 preserveAspectRatio="xMidYMid meet">

<g transform="translate(0.000000,217.000000) scale(0.100000,-0.100000)"
fill="#000000" stroke="none">
<path d="M905 2155 c-228 -43 -429 -148 -586 -307 -558 -563 -343 -1516 402
-1782 623 -223 1297 156 1429 803 74 365 -44 743 -314 999 -136 129 -303 222
-481 268 -128 33 -330 41 -450 19z m658 -372 c2 -5 -9 -67 -26 -139 l-30 -131
-338 -6 c-308 -6 -341 -8 -376 -25 -21 -11 -45 -28 -54 -38 -19 -22 -59 -98
-59 -114 0 -7 125 -10 384 -10 212 0 387 -4 390 -8 3 -5 -9 -68 -26 -140 l-32
-132 -402 0 -402 0 -27 -117 c-15 -65 -39 -170 -54 -233 l-26 -115 -143 -3
c-118 -2 -142 0 -142 12 0 8 20 101 44 208 25 106 67 292 95 413 39 167 60
238 88 295 49 98 138 190 226 231 113 53 158 57 549 58 196 1 359 -2 361 -6z
m340 -184 l118 -182 -57 -51 c-32 -28 -125 -110 -208 -182 l-150 -132 -96 -1
-95 -1 30 26 c128 113 272 241 328 294 l48 45 -52 80 c-28 44 -80 123 -115
176 -35 53 -64 99 -64 103 0 3 44 6 98 6 l97 0 118 -181z"/>
</g>
</svg>
